P3
20 10
255
255 12 0 
255 12 0 
255 11 0 
255 12 0 
255 12 0 
255 12 0 
255 12 0 
255 12 0 
255 12 0 
255 12 0 
255 12 0 
255 12 0 
255 12 0 
255 12 0 
255 12 0 
255 12 0 
255 12 0 
255 12 0 
255 12 0 
255 12 0 
255 11 0 
255 11 0 
255 11 0 
255 12 0 
255 11 0 
255 11 0 
255 12 0 
255 11 0 
255 12 0 
255 11 0 
255 11 0 
255 11 0 
255 11 0 
255 11 0 
255 12 0 
255 11 0 
255 11 0 
255 11 0 
255 11 0 
255 11 0 
255 12 0 
255 12 0 
255 11 0 
255 12 0 
255 12 0 
255 12 0 
255 12 0 
255 12 0 
255 12 0 
255 12 0 
255 12 0 
255 12 0 
255 12 0 
255 12 0 
255 12 0 
255 12 0 
255 12 0 
255 12 0 
255 12 0 
255 12 0 
255 12 0 
255 12 0 
255 11 0 
255 12 0 
255 12 0 
255 12 0 
255 12 0 
255 12 0 
255 12 0 
255 12 0 
255 12 0 
255 12 0 
255 12 0 
255 12 0 
255 12 0 
255 12 0 
255 12 0 
255 12 0 
255 12 0 
255 12 0 
255 12 0 
255 12 0 
255 11 0 
255 12 0 
255 12 0 
255 12 0 
255 12 0 
255 12 0 
255 12 0 
255 12 0 
255 12 0 
255 12 0 
255 12 0 
255 12 0 
255 12 0 
255 12 0 
255 12 0 
255 12 0 
255 12 0 
255 12 0 
255 12 0 
255 12 0 
255 11 0 
255 12 0 
255 12 0 
255 12 0 
255 12 0 
255 12 0 
255 12 0 
255 12 0 
255 12 0 
255 12 0 
255 12 0 
255 12 0 
255 12 0 
255 12 0 
255 12 0 
255 12 0 
255 12 0 
255 12 0 
255 12 0 
255 12 0 
255 11 0 
255 12 0 
255 12 0 
255 12 0 
255 12 0 
255 12 0 
255 12 0 
255 12 0 
255 12 0 
255 12 0 
255 12 0 
255 12 0 
255 12 0 
255 12 0 
255 12 0 
255 12 0 
255 12 0 
255 12 0 
255 12 0 
255 12 0 
255 11 0 
255 12 0 
255 12 0 
255 12 0 
255 12 0 
255 12 0 
255 12 0 
255 12 0 
255 12 0 
255 12 0 
255 12 0 
255 12 0 
255 12 0 
255 12 0 
255 12 0 
255 12 0 
255 12 0 
255 12 0 
255 12 0 
255 12 0 
255 11 0 
255 12 0 
255 12 0 
255 12 0 
255 12 0 
255 12 0 
255 12 0 
255 12 0 
255 12 0 
255 12 0 
255 12 0 
255 12 0 
255 12 0 
255 12 0 
255 12 0 
255 12 0 
255 12 0 
255 12 0 
255 12 0 
255 12 0 
255 11 0 
255 12 0 
255 12 0 
255 12 0 
255 12 0 
255 12 0 
255 12 0 
255 12 0 
255 12 0 
255 12 0 
255 12 0 
255 12 0 
255 12 0 
255 12 0 
255 12 0 
255 12 0 
255 12 0 
255 12 0 
